<svg width="1145pt" height="746pt" viewBox="0.00 0.00 1145.20 745.60" xmlns="http://www.w3.org/2000/svg" xmlns:xlink="http://www.w3.org/1999/xlink">
<g id="graph0" class="graph" transform="scale(1 1) rotate(0) translate(4 741.6)">
<polygon fill="white" stroke="none" points="-4,4 -4,-741.6 1141.2,-741.6 1141.2,4 -4,4"></polygon>
<!-- b3_sk_0 -->
<g id="node1" class="node">
<title>b3_sk_0</title>
<g id="a_node1"><a xlink:href="urn:name:playground-demo" xlink:title="urn:name:playground-demo">
<defs>
<linearGradient id="l_0" gradientUnits="userSpaceOnUse" x1="174.36" y1="-722.2" x2="296.76" y2="-722.2">
<stop offset="0" style="stop-color:#7fc97f;stop-opacity:1.;"></stop>
<stop offset="1" style="stop-color:#fdc086;stop-opacity:1.;"></stop>
</linearGradient>
</defs>
<polygon fill="url(#l_0)" stroke="none" points="174.36,-710.8 174.36,-733.6 296.76,-733.6 296.76,-710.8 174.36,-710.8"></polygon>
<polygon fill="none" stroke="black" points="174.36,-710.8 174.36,-733.6 296.76,-733.6 296.76,-710.8 174.36,-710.8"></polygon>
<text text-anchor="start" x="185.8" y="-718" font-family="Times,serif" font-size="14.00">playground-demo</text>
<polygon fill="none" stroke="black" points="174.36,-688 174.36,-710.8 203.68,-710.8 203.68,-688 174.36,-688"></polygon>
<text text-anchor="start" x="177.36" y="-696.2" font-family="Times,serif" font-style="italic" font-size="14.00">type</text>
<polygon fill="none" stroke="black" points="203.68,-688 203.68,-710.8 296.76,-710.8 296.76,-688 203.68,-688"></polygon>
<text text-anchor="start" x="206.68" y="-695.2" font-family="Times,serif" font-size="14.00">NamedConcept</text>
</a>
</g>
</g>
<!-- b3_sk_1 -->
<g id="node2" class="node">
<title>b3_sk_1</title>
<g id="a_node2"><a xlink:href="file:///vault/playground-demo.md" xlink:title="file:///vault/playground-demo.md">
<defs>
<linearGradient id="l_1" gradientUnits="userSpaceOnUse" x1="8" y1="-547.4" x2="273.13" y2="-547.4">
<stop offset="0" style="stop-color:#7fc97f;stop-opacity:1.;"></stop>
<stop offset="1" style="stop-color:#fdc086;stop-opacity:1.;"></stop>
</linearGradient>
</defs>
<polygon fill="url(#l_1)" stroke="none" points="8,-536 8,-558.8 273.13,-558.8 273.13,-536 8,-536"></polygon>
<polygon fill="none" stroke="black" points="8,-536 8,-558.8 273.13,-558.8 273.13,-536 8,-536"></polygon>
<text text-anchor="start" x="80.1" y="-543.2" font-family="Times,serif" font-size="14.00">playground-demo.md</text>
<polygon fill="none" stroke="black" points="8,-513.2 8,-536 110.42,-536 110.42,-513.2 8,-513.2"></polygon>
<text text-anchor="start" x="47.55" y="-521.4" font-family="Times,serif" font-style="italic" font-size="14.00">type</text>
<polygon fill="none" stroke="black" points="110.42,-513.2 110.42,-536 273.13,-536 273.13,-513.2 110.42,-513.2"></polygon>
<text text-anchor="start" x="131.9" y="-520.4" font-family="Times,serif" font-size="14.00">MarkdownDocument</text>
<polygon fill="none" stroke="black" points="8,-490.4 8,-513.2 110.42,-513.2 110.42,-490.4 8,-490.4"></polygon>
<text text-anchor="start" x="28.88" y="-498.6" font-family="Times,serif" font-style="italic" font-size="14.00">atLocation</text>
<polygon fill="none" stroke="black" points="110.42,-490.4 110.42,-513.2 273.13,-513.2 273.13,-490.4 110.42,-490.4"></polygon>
<text text-anchor="start" x="113.43" y="-497.6" font-family="Times,serif" font-size="14.00">/vault/playground-demo.md</text>
<polygon fill="none" stroke="black" points="8,-467.6 8,-490.4 110.42,-490.4 110.42,-467.6 8,-467.6"></polygon>
<text text-anchor="start" x="11" y="-475.8" font-family="Times,serif" font-style="italic" font-size="14.00">generatedAtTime</text>
<polygon fill="none" stroke="black" points="110.42,-467.6 110.42,-490.4 273.13,-490.4 273.13,-467.6 110.42,-467.6"></polygon>
<text text-anchor="start" x="113.42" y="-474.8" font-family="Times,serif" font-size="14.00">2025-07-07T15:39:48.323Z</text>
</a>
</g>
</g>
<!-- b3_sk_0&#45;&gt;b3_sk_1 -->
<g id="edge1" class="edge">
<title>b3_sk_0-&gt;b3_sk_1</title>
<g id="a_edge1"><a xlink:title="derivedFrom">
<path fill="none" stroke="#a6cee3" d="M166.51,-689.26C156.5,-683.33 147.48,-675.73 141.25,-666 124.03,-639.15 122.94,-603.75 126.57,-573.9"></path>
<polygon fill="#a6cee3" stroke="#a6cee3" points="130,-574.65 127.96,-564.25 123.07,-573.65 130,-574.65"></polygon>
</a>
</g>
<g id="a_edge1-label"><a xlink:href="http://www.w3.org/ns/prov#derivedFrom" xlink:title="derivedFrom">
<text text-anchor="middle" x="177.41" y="-653.4" font-family="Times,serif" font-size="14.00">derivedFrom</text>
</a>
</g>
</g>
<!-- b3_sk_2 -->
<g id="node3" class="node">
<title>b3_sk_2</title>
<g id="a_node3"><a xlink:title="https://eyereasoner.github.io/.well-known/genid/0fea5b55-8352-4e58-b1e8-fcec54055c58#e_b189_1">
<polygon fill="none" stroke="black" points="307.47,-604.4 307.47,-627.2 420.78,-627.2 420.78,-604.4 307.47,-604.4"></polygon>
<text text-anchor="start" x="352.47" y="-612.6" font-family="Times,serif" font-style="italic" font-size="14.00">type</text>
<polygon fill="none" stroke="black" points="420.78,-604.4 420.78,-627.2 527.66,-627.2 527.66,-604.4 420.78,-604.4"></polygon>
<text text-anchor="start" x="442.72" y="-611.6" font-family="Times,serif" font-size="14.00">Annotation</text>
<polygon fill="none" stroke="black" points="307.47,-581.6 307.47,-604.4 420.78,-604.4 420.78,-581.6 307.47,-581.6"></polygon>
<text text-anchor="start" x="350.13" y="-589.8" font-family="Times,serif" font-style="italic" font-size="14.00">label</text>
<polygon fill="none" stroke="black" points="420.78,-581.6 420.78,-604.4 527.66,-604.4 527.66,-581.6 420.78,-581.6"></polygon>
<text text-anchor="start" x="423.78" y="-588.8" font-family="Times,serif" font-size="14.00">Alice's Adventure</text>
<polygon fill="none" stroke="black" points="307.47,-558.8 307.47,-581.6 420.78,-581.6 420.78,-558.8 307.47,-558.8"></polygon>
<text text-anchor="start" x="354.02" y="-567" font-family="Times,serif" font-style="italic" font-size="14.00">age</text>
<polygon fill="none" stroke="black" points="420.78,-558.8 420.78,-581.6 527.66,-581.6 527.66,-558.8 420.78,-558.8"></polygon>
<text text-anchor="start" x="467.22" y="-566" font-family="Times,serif" font-size="14.00">25</text>
<polygon fill="none" stroke="black" points="307.47,-536 307.47,-558.8 420.78,-558.8 420.78,-536 307.47,-536"></polygon>
<text text-anchor="start" x="333.02" y="-544.2" font-family="Times,serif" font-style="italic" font-size="14.00">occupation</text>
<polygon fill="none" stroke="black" points="420.78,-536 420.78,-558.8 527.66,-558.8 527.66,-536 420.78,-536"></polygon>
<text text-anchor="start" x="454" y="-543.2" font-family="Times,serif" font-size="14.00">student</text>
<polygon fill="none" stroke="black" points="307.47,-513.2 307.47,-536 420.78,-536 420.78,-513.2 307.47,-513.2"></polygon>
<text text-anchor="start" x="343.91" y="-521.4" font-family="Times,serif" font-style="italic" font-size="14.00">species</text>
<polygon fill="none" stroke="black" points="420.78,-513.2 420.78,-536 527.66,-536 527.66,-513.2 420.78,-513.2"></polygon>
<text text-anchor="start" x="457.89" y="-520.4" font-family="Times,serif" font-size="14.00">rabbit</text>
<polygon fill="none" stroke="black" points="307.47,-490.4 307.47,-513.2 420.78,-513.2 420.78,-490.4 307.47,-490.4"></polygon>
<text text-anchor="start" x="310.47" y="-498.6" font-family="Times,serif" font-style="italic" font-size="14.00">notable%20feature</text>
<polygon fill="none" stroke="black" points="420.78,-490.4 420.78,-513.2 527.66,-513.2 527.66,-490.4 420.78,-490.4"></polygon>
<text text-anchor="start" x="437.1" y="-497.6" font-family="Times,serif" font-size="14.00">pocket watch</text>
<polygon fill="none" stroke="black" points="307.47,-467.6 307.47,-490.4 420.78,-490.4 420.78,-467.6 307.47,-467.6"></polygon>
<text text-anchor="start" x="341.57" y="-475.8" font-family="Times,serif" font-style="italic" font-size="14.00">emotion</text>
<polygon fill="none" stroke="black" points="420.78,-467.6 420.78,-490.4 527.66,-490.4 527.66,-467.6 420.78,-467.6"></polygon>
<text text-anchor="start" x="459.06" y="-474.8" font-family="Times,serif" font-size="14.00">panic</text>
<polygon fill="none" stroke="black" points="307.47,-444.8 307.47,-467.6 420.78,-467.6 420.78,-444.8 307.47,-444.8"></polygon>
<text text-anchor="start" x="340.8" y="-453" font-family="Times,serif" font-style="italic" font-size="14.00">reaction</text>
<polygon fill="none" stroke="black" points="420.78,-444.8 420.78,-467.6 527.66,-467.6 527.66,-444.8 420.78,-444.8"></polygon>
<text text-anchor="start" x="453.61" y="-452" font-family="Times,serif" font-size="14.00">curious</text>
<polygon fill="none" stroke="black" points="307.47,-422 307.47,-444.8 420.78,-444.8 420.78,-422 307.47,-422"></polygon>
<text text-anchor="start" x="348.57" y="-430.2" font-family="Times,serif" font-style="italic" font-size="14.00">depth</text>
<polygon fill="none" stroke="black" points="420.78,-422 420.78,-444.8 527.66,-444.8 527.66,-422 420.78,-422"></polygon>
<text text-anchor="start" x="448.16" y="-429.2" font-family="Times,serif" font-size="14.00">unknown</text>
<polygon fill="none" stroke="black" points="307.47,-399.2 307.47,-422 420.78,-422 420.78,-399.2 307.47,-399.2"></polygon>
<text text-anchor="start" x="331.07" y="-407.4" font-family="Times,serif" font-style="italic" font-size="14.00">leads%20to</text>
<polygon fill="none" stroke="black" points="420.78,-399.2 420.78,-422 527.66,-422 527.66,-399.2 420.78,-399.2"></polygon>
<text text-anchor="start" x="439.62" y="-406.4" font-family="Times,serif" font-size="14.00">Wonderland</text>
</a>
</g>
</g>
<!-- b3_sk_0&#45;&gt;b3_sk_2 -->
<g id="edge2" class="edge">
<title>b3_sk_0-&gt;b3_sk_2</title>
<g id="a_edge2"><a xlink:title="contains">
<path fill="none" stroke="#ff7f00" d="M263.15,-684.21C269.3,-678.32 275.73,-672.02 281.56,-666 289.86,-657.44 298.33,-648.51 306.79,-639.45"></path>
<polygon fill="#ff7f00" stroke="#ff7f00" points="309.27,-641.92 313.51,-632.21 304.14,-637.16 309.27,-641.92"></polygon>
</a>
</g>
<g id="a_edge2-label"><a xlink:href="http://pkm-united.org/contains" xlink:title="contains">
<text text-anchor="middle" x="320.18" y="-653.4" font-family="Times,serif" font-size="14.00">contains</text>
</a>
</g>
</g>
<!-- b3_sk_1&#45;&gt;b3_sk_0 -->
<g id="edge9" class="edge">
<title>b3_sk_1-&gt;b3_sk_0</title>
<g id="a_edge9"><a xlink:title="represents">
<path fill="none" stroke="#cab2d6" d="M169.04,-562.69C183.33,-588.02 200.36,-619.79 213.56,-649.2 217.03,-656.92 220.37,-665.37 223.35,-673.44"></path>
<polygon fill="#cab2d6" stroke="#cab2d6" points="220,-674.45 226.67,-682.69 226.59,-672.09 220,-674.45"></polygon>
</a>
</g>
<g id="a_edge9-label"><a xlink:href="http://pkm-united.org/represents" xlink:title="represents">
<text text-anchor="middle" x="248.73" y="-653.4" font-family="Times,serif" font-size="14.00">represents</text>
</a>
</g>
</g>
<!-- b3_sk_3 -->
<g id="node4" class="node">
<title>b3_sk_3</title>
<g id="a_node4"><a xlink:title="https://eyereasoner.github.io/.well-known/genid/0fea5b55-8352-4e58-b1e8-fcec54055c58#e_b194_1">
<polygon fill="none" stroke="black" points="105.61,-209.2 105.61,-232 190.12,-232 190.12,-209.2 105.61,-209.2"></polygon>
<text text-anchor="start" x="136.21" y="-217.4" font-family="Times,serif" font-style="italic" font-size="14.00">type</text>
<polygon fill="none" stroke="black" points="190.12,-209.2 190.12,-232 285.52,-232 285.52,-209.2 190.12,-209.2"></polygon>
<text text-anchor="start" x="206.32" y="-216.4" font-family="Times,serif" font-size="14.00">Annotation</text>
<polygon fill="none" stroke="black" points="105.61,-186.4 105.61,-209.2 190.12,-209.2 190.12,-186.4 105.61,-186.4"></polygon>
<text text-anchor="start" x="133.87" y="-194.6" font-family="Times,serif" font-style="italic" font-size="14.00">label</text>
<polygon fill="none" stroke="black" points="190.12,-186.4 190.12,-209.2 285.52,-209.2 285.52,-186.4 190.12,-186.4"></polygon>
<text text-anchor="start" x="210.8" y="-193.6" font-family="Times,serif" font-size="14.00">Tea Party</text>
<polygon fill="none" stroke="black" points="105.61,-163.6 105.61,-186.4 190.12,-186.4 190.12,-163.6 105.61,-163.6"></polygon>
<text text-anchor="start" x="108.61" y="-171.8" font-family="Times,serif" font-style="italic" font-size="14.00">event%20type</text>
<polygon fill="none" stroke="black" points="190.12,-163.6 190.12,-186.4 285.52,-186.4 285.52,-163.6 190.12,-163.6"></polygon>
<text text-anchor="start" x="193.31" y="-170.8" font-family="Times,serif" font-size="14.00">social gathering</text>
<polygon fill="none" stroke="black" points="105.61,-140.8 105.61,-163.6 190.12,-163.6 190.12,-140.8 105.61,-140.8"></polygon>
<text text-anchor="start" x="136.19" y="-149" font-family="Times,serif" font-style="italic" font-size="14.00">host</text>
<polygon fill="none" stroke="black" points="190.12,-140.8 190.12,-163.6 285.52,-163.6 285.52,-140.8 190.12,-140.8"></polygon>
<text text-anchor="start" x="194.67" y="-148" font-family="Times,serif" font-size="14.00">Mad%20Hatter</text>
<polygon fill="none" stroke="black" points="105.61,-118 105.61,-140.8 190.12,-140.8 190.12,-118 105.61,-118"></polygon>
<text text-anchor="start" x="135.81" y="-126.2" font-family="Times,serif" font-style="italic" font-size="14.00">time</text>
<polygon fill="none" stroke="black" points="190.12,-118 190.12,-140.8 285.52,-140.8 285.52,-118 190.12,-118"></polygon>
<text text-anchor="start" x="201.26" y="-125.2" font-family="Times,serif" font-size="14.00">always 3 PM</text>
<polygon fill="none" stroke="black" points="105.61,-95.2 105.61,-118 190.12,-118 190.12,-95.2 105.61,-95.2"></polygon>
<text text-anchor="start" x="114.03" y="-103.4" font-family="Times,serif" font-style="italic" font-size="14.00">participants</text>
<polygon fill="none" stroke="black" points="190.12,-95.2 190.12,-118 285.52,-118 285.52,-95.2 190.12,-95.2"></polygon>
<text text-anchor="start" x="194.67" y="-102.4" font-family="Times,serif" font-size="14.00">Mad%20Hatter</text>
<polygon fill="none" stroke="black" points="105.61,-72.4 105.61,-95.2 190.12,-95.2 190.12,-72.4 105.61,-72.4"></polygon>
<text text-anchor="start" x="115.2" y="-80.6" font-family="Times,serif" font-style="italic" font-size="14.00">atmosphere</text>
<polygon fill="none" stroke="black" points="190.12,-72.4 190.12,-95.2 285.52,-95.2 285.52,-72.4 190.12,-72.4"></polygon>
<text text-anchor="start" x="217.61" y="-79.6" font-family="Times,serif" font-size="14.00">chaotic</text>
<polygon fill="none" stroke="black" points="105.61,-49.6 105.61,-72.4 190.12,-72.4 190.12,-49.6 105.61,-49.6"></polygon>
<text text-anchor="start" x="128.04" y="-57.8" font-family="Times,serif" font-style="italic" font-size="14.00">related</text>
<polygon fill="none" stroke="black" points="190.12,-49.6 190.12,-72.4 285.52,-72.4 285.52,-49.6 190.12,-49.6"></polygon>
<text text-anchor="start" x="194.67" y="-56.8" font-family="Times,serif" font-size="14.00">Mad%20Hatter</text>
<polygon fill="none" stroke="black" points="105.61,-26.8 105.61,-49.6 190.12,-49.6 190.12,-26.8 105.61,-26.8"></polygon>
<text text-anchor="start" x="128.04" y="-35" font-family="Times,serif" font-style="italic" font-size="14.00">related</text>
<polygon fill="none" stroke="black" points="190.12,-26.8 190.12,-49.6 285.52,-49.6 285.52,-26.8 190.12,-26.8"></polygon>
<text text-anchor="start" x="222.66" y="-34" font-family="Times,serif" font-size="14.00">Alice</text>
<polygon fill="none" stroke="black" points="105.61,-4 105.61,-26.8 190.12,-26.8 190.12,-4 105.61,-4"></polygon>
<text text-anchor="start" x="128.04" y="-12.2" font-family="Times,serif" font-style="italic" font-size="14.00">related</text>
<polygon fill="none" stroke="black" points="190.12,-4 190.12,-26.8 285.52,-26.8 285.52,-4 190.12,-4"></polygon>
<text text-anchor="start" x="193.12" y="-11.2" font-family="Times,serif" font-size="14.00">March%20Hare</text>
</a>
</g>
</g>
<!-- b3_sk_2&#45;&gt;b3_sk_3 -->
<g id="edge10" class="edge">
<title>b3_sk_2-&gt;b3_sk_3</title>
<g id="a_edge10"><a xlink:title="destination">
<path fill="none" stroke="#6a3d9a" d="M322.29,-395.23C310.07,-377.99 298.3,-360.07 288.13,-342.4 270.84,-312.35 255.08,-278.45 241.65,-246.31"></path>
<polygon fill="#6a3d9a" stroke="#6a3d9a" points="245,-245.25 237.96,-237.34 238.53,-247.92 245,-245.25"></polygon>
</a>
</g>
<g id="a_edge10-label"><a xlink:href="urn:property:destination" xlink:title="destination">
<text text-anchor="middle" x="318.85" y="-311.4" font-family="Times,serif" font-size="14.00">destination</text>
</a>
</g>
</g>
<!-- b3_sk_4 -->
<g id="node5" class="node">
<title>b3_sk_4</title>
<g id="a_node5"><a xlink:title="https://eyereasoner.github.io/.well-known/genid/0fea5b55-8352-4e58-b1e8-fcec54055c58#e_b190_1">
<polygon fill="none" stroke="black" points="676.07,-315.6 676.07,-338.4 710.06,-338.4 710.06,-315.6 676.07,-315.6"></polygon>
<text text-anchor="start" x="681.41" y="-323.8" font-family="Times,serif" font-style="italic" font-size="14.00">type</text>
<polygon fill="none" stroke="black" points="710.06,-315.6 710.06,-338.4 779.06,-338.4 779.06,-315.6 710.06,-315.6"></polygon>
<text text-anchor="start" x="713.06" y="-322.8" font-family="Times,serif" font-size="14.00">Annotation</text>
<polygon fill="none" stroke="black" points="676.07,-292.8 676.07,-315.6 710.06,-315.6 710.06,-292.8 676.07,-292.8"></polygon>
<text text-anchor="start" x="679.07" y="-301" font-family="Times,serif" font-style="italic" font-size="14.00">label</text>
<polygon fill="none" stroke="black" points="710.06,-292.8 710.06,-315.6 779.06,-315.6 779.06,-292.8 710.06,-292.8"></polygon>
<text text-anchor="start" x="714.63" y="-300" font-family="Times,serif" font-size="14.00">Characters</text>
</a>
</g>
</g>
<!-- b3_sk_2&#45;&gt;b3_sk_4 -->
<g id="edge3" class="edge">
<title>b3_sk_2-&gt;b3_sk_4</title>
<g id="a_edge3"><a xlink:title="contains">
<path fill="none" stroke="#ff7f00" d="M535.65,-437.69C584.86,-406.64 639.35,-372.26 677.65,-348.09"></path>
<polygon fill="#ff7f00" stroke="#ff7f00" points="679.16,-351.28 685.75,-342.99 675.42,-345.36 679.16,-351.28"></polygon>
</a>
</g>
<g id="a_edge3-label"><a xlink:href="http://pkm-united.org/contains" xlink:title="contains">
<text text-anchor="middle" x="675.98" y="-364.6" font-family="Times,serif" font-size="14.00">contains</text>
</a>
</g>
</g>
<!-- b3_sk_7 -->
<g id="node8" class="node">
<title>b3_sk_7</title>
<g id="a_node8"><a xlink:title="https://eyereasoner.github.io/.well-known/genid/0fea5b55-8352-4e58-b1e8-fcec54055c58#e_b193_1">
<polygon fill="none" stroke="black" points="366.07,-315.6 366.07,-338.4 400.06,-338.4 400.06,-315.6 366.07,-315.6"></polygon>
<text text-anchor="start" x="371.41" y="-323.8" font-family="Times,serif" font-style="italic" font-size="14.00">type</text>
<polygon fill="none" stroke="black" points="400.06,-315.6 400.06,-338.4 469.06,-338.4 469.06,-315.6 400.06,-315.6"></polygon>
<text text-anchor="start" x="403.06" y="-322.8" font-family="Times,serif" font-size="14.00">Annotation</text>
<polygon fill="none" stroke="black" points="366.07,-292.8 366.07,-315.6 400.06,-315.6 400.06,-292.8 366.07,-292.8"></polygon>
<text text-anchor="start" x="369.07" y="-301" font-family="Times,serif" font-style="italic" font-size="14.00">label</text>
<polygon fill="none" stroke="black" points="400.06,-292.8 400.06,-315.6 469.06,-315.6 469.06,-292.8 400.06,-292.8"></polygon>
<text text-anchor="start" x="406.96" y="-300" font-family="Times,serif" font-size="14.00">Locations</text>
</a>
</g>
</g>
<!-- b3_sk_2&#45;&gt;b3_sk_7 -->
<g id="edge4" class="edge">
<title>b3_sk_2-&gt;b3_sk_7</title>
<g id="a_edge4"><a xlink:title="contains">
<path fill="none" stroke="#ff7f00" d="M417.56,-395.31C417.56,-380.38 417.56,-366.07 417.56,-353.84"></path>
<polygon fill="#ff7f00" stroke="#ff7f00" points="421.06,-353.87 417.56,-343.87 414.06,-353.87 421.06,-353.87"></polygon>
</a>
</g>
<g id="a_edge4-label"><a xlink:href="http://pkm-united.org/contains" xlink:title="contains">
<text text-anchor="middle" x="440.89" y="-364.6" font-family="Times,serif" font-size="14.00">contains</text>
</a>
</g>
</g>
<!-- b3_sk_5 -->
<g id="node6" class="node">
<title>b3_sk_5</title>
<g id="a_node6"><a xlink:title="https://eyereasoner.github.io/.well-known/genid/0fea5b55-8352-4e58-b1e8-fcec54055c58#e_b191_1">
<polygon fill="none" stroke="black" points="605.28,-197.8 605.28,-220.6 710.84,-220.6 710.84,-197.8 605.28,-197.8"></polygon>
<text text-anchor="start" x="646.4" y="-206" font-family="Times,serif" font-style="italic" font-size="14.00">type</text>
<polygon fill="none" stroke="black" points="710.84,-197.8 710.84,-220.6 849.84,-220.6 849.84,-197.8 710.84,-197.8"></polygon>
<text text-anchor="start" x="748.84" y="-205" font-family="Times,serif" font-size="14.00">Annotation</text>
<polygon fill="none" stroke="black" points="605.28,-175 605.28,-197.8 710.84,-197.8 710.84,-175 605.28,-175"></polygon>
<text text-anchor="start" x="644.06" y="-183.2" font-family="Times,serif" font-style="italic" font-size="14.00">label</text>
<polygon fill="none" stroke="black" points="710.84,-175 710.84,-197.8 849.84,-197.8 849.84,-175 710.84,-175"></polygon>
<text text-anchor="start" x="765.18" y="-182.2" font-family="Times,serif" font-size="14.00">Alice</text>
<polygon fill="none" stroke="black" points="605.28,-152.2 605.28,-175 710.84,-175 710.84,-152.2 605.28,-152.2"></polygon>
<text text-anchor="start" x="642.9" y="-160.4" font-family="Times,serif" font-style="italic" font-size="14.00">name</text>
<polygon fill="none" stroke="black" points="710.84,-152.2 710.84,-175 849.84,-175 849.84,-152.2 710.84,-152.2"></polygon>
<text text-anchor="start" x="728.83" y="-159.4" font-family="Times,serif" font-size="14.00">Alice Wonderland</text>
<polygon fill="none" stroke="black" points="605.28,-129.4 605.28,-152.2 710.84,-152.2 710.84,-129.4 605.28,-129.4"></polygon>
<text text-anchor="start" x="630.84" y="-137.6" font-family="Times,serif" font-style="italic" font-size="14.00">birthDate</text>
<polygon fill="none" stroke="black" points="710.84,-129.4 710.84,-152.2 849.84,-152.2 849.84,-129.4 710.84,-129.4"></polygon>
<text text-anchor="start" x="747.68" y="-136.6" font-family="Times,serif" font-size="14.00">1998-03-15</text>
<polygon fill="none" stroke="black" points="605.28,-106.6 605.28,-129.4 710.84,-129.4 710.84,-106.6 605.28,-106.6"></polygon>
<text text-anchor="start" x="642.51" y="-114.8" font-family="Times,serif" font-style="italic" font-size="14.00">email</text>
<polygon fill="none" stroke="black" points="710.84,-106.6 710.84,-129.4 849.84,-129.4 849.84,-106.6 710.84,-106.6"></polygon>
<text text-anchor="start" x="713.84" y="-113.8" font-family="Times,serif" font-size="14.00">alice@wonderland.com</text>
<polygon fill="none" stroke="black" points="605.28,-83.8 605.28,-106.6 710.84,-106.6 710.84,-83.8 605.28,-83.8"></polygon>
<text text-anchor="start" x="640.56" y="-92" font-family="Times,serif" font-style="italic" font-size="14.00">knows</text>
<polygon fill="none" stroke="black" points="710.84,-83.8 710.84,-106.6 849.84,-106.6 849.84,-83.8 710.84,-83.8"></polygon>
<text text-anchor="start" x="731.74" y="-91" font-family="Times,serif" font-size="14.00">White%20Rabbit</text>
<polygon fill="none" stroke="black" points="605.28,-61 605.28,-83.8 710.84,-83.8 710.84,-61 605.28,-61"></polygon>
<text text-anchor="start" x="626.56" y="-69.2" font-family="Times,serif" font-style="italic" font-size="14.00">personality</text>
<polygon fill="none" stroke="black" points="710.84,-61 710.84,-83.8 849.84,-83.8 849.84,-61 710.84,-61"></polygon>
<text text-anchor="start" x="740.69" y="-68.2" font-family="Times,serif" font-size="14.00">curious, brave</text>
<polygon fill="none" stroke="black" points="605.28,-38.2 605.28,-61 710.84,-61 710.84,-38.2 605.28,-38.2"></polygon>
<text text-anchor="start" x="608.28" y="-46.4" font-family="Times,serif" font-style="italic" font-size="14.00">current%20status</text>
<polygon fill="none" stroke="black" points="710.84,-38.2 710.84,-61 849.84,-61 849.84,-38.2 710.84,-38.2"></polygon>
<text text-anchor="start" x="726.68" y="-45.4" font-family="Times,serif" font-size="14.00">lost in Wonderland</text>
<polygon fill="none" stroke="black" points="605.28,-15.4 605.28,-38.2 710.84,-38.2 710.84,-15.4 605.28,-15.4"></polygon>
<text text-anchor="start" x="635.13" y="-23.6" font-family="Times,serif" font-style="italic" font-size="14.00">external</text>
<polygon fill="none" stroke="black" points="710.84,-15.4 710.84,-38.2 849.84,-38.2 849.84,-15.4 710.84,-15.4"></polygon>
<text text-anchor="start" x="713.84" y="-22.6" font-family="Times,serif" font-size="14.00">alice@wonderland.com</text>
</a>
</g>
</g>
<!-- b3_sk_4&#45;&gt;b3_sk_5 -->
<g id="edge5" class="edge">
<title>b3_sk_4-&gt;b3_sk_5</title>
<g id="a_edge5"><a xlink:title="contains">
<path fill="none" stroke="#ff7f00" d="M727.56,-289.03C727.56,-274.7 727.56,-255.7 727.56,-235.59"></path>
<polygon fill="#ff7f00" stroke="#ff7f00" points="731.06,-235.85 727.56,-225.85 724.06,-235.85 731.06,-235.85"></polygon>
</a>
</g>
<g id="a_edge5-label"><a xlink:href="http://pkm-united.org/contains" xlink:title="contains">
<text text-anchor="middle" x="750.89" y="-258.2" font-family="Times,serif" font-size="14.00">contains</text>
</a>
</g>
</g>
<!-- b3_sk_6 -->
<g id="node7" class="node">
<title>b3_sk_6</title>
<g id="a_node7"><a xlink:title="https://eyereasoner.github.io/.well-known/genid/0fea5b55-8352-4e58-b1e8-fcec54055c58#e_b192_1">
<polygon fill="none" stroke="black" points="883.93,-186.4 883.93,-209.2 987.14,-209.2 987.14,-186.4 883.93,-186.4"></polygon>
<text text-anchor="start" x="923.87" y="-194.6" font-family="Times,serif" font-style="italic" font-size="14.00">type</text>
<polygon fill="none" stroke="black" points="987.14,-186.4 987.14,-209.2 1129.2,-209.2 1129.2,-186.4 987.14,-186.4"></polygon>
<text text-anchor="start" x="1026.67" y="-193.6" font-family="Times,serif" font-size="14.00">Annotation</text>
<polygon fill="none" stroke="black" points="883.93,-163.6 883.93,-186.4 987.14,-186.4 987.14,-163.6 883.93,-163.6"></polygon>
<text text-anchor="start" x="921.54" y="-171.8" font-family="Times,serif" font-style="italic" font-size="14.00">label</text>
<polygon fill="none" stroke="black" points="987.14,-163.6 987.14,-186.4 1129.2,-186.4 1129.2,-163.6 987.14,-163.6"></polygon>
<text text-anchor="start" x="1020.65" y="-170.8" font-family="Times,serif" font-size="14.00">White Rabbit</text>
<polygon fill="none" stroke="black" points="883.93,-140.8 883.93,-163.6 987.14,-163.6 987.14,-140.8 883.93,-140.8"></polygon>
<text text-anchor="start" x="915.32" y="-149" font-family="Times,serif" font-style="italic" font-size="14.00">species</text>
<polygon fill="none" stroke="black" points="987.14,-140.8 987.14,-163.6 1129.2,-163.6 1129.2,-140.8 987.14,-140.8"></polygon>
<text text-anchor="start" x="1041.84" y="-148" font-family="Times,serif" font-size="14.00">rabbit</text>
<polygon fill="none" stroke="black" points="883.93,-118 883.93,-140.8 987.14,-140.8 987.14,-118 883.93,-118"></polygon>
<text text-anchor="start" x="920.37" y="-126.2" font-family="Times,serif" font-style="italic" font-size="14.00">name</text>
<polygon fill="none" stroke="black" points="987.14,-118 987.14,-140.8 1129.2,-140.8 1129.2,-118 987.14,-118"></polygon>
<text text-anchor="start" x="1020.65" y="-125.2" font-family="Times,serif" font-size="14.00">White Rabbit</text>
<polygon fill="none" stroke="black" points="883.93,-95.2 883.93,-118 987.14,-118 987.14,-95.2 883.93,-95.2"></polygon>
<text text-anchor="start" x="904.04" y="-103.4" font-family="Times,serif" font-style="italic" font-size="14.00">personality</text>
<polygon fill="none" stroke="black" points="987.14,-95.2 987.14,-118 1129.2,-118 1129.2,-95.2 987.14,-95.2"></polygon>
<text text-anchor="start" x="1008.79" y="-102.4" font-family="Times,serif" font-size="14.00">anxious, punctual</text>
<polygon fill="none" stroke="black" points="883.93,-72.4 883.93,-95.2 987.14,-95.2 987.14,-72.4 883.93,-72.4"></polygon>
<text text-anchor="start" x="907.93" y="-80.6" font-family="Times,serif" font-style="italic" font-size="14.00">accessory</text>
<polygon fill="none" stroke="black" points="987.14,-72.4 987.14,-95.2 1129.2,-95.2 1129.2,-72.4 987.14,-72.4"></polygon>
<text text-anchor="start" x="1021.05" y="-79.6" font-family="Times,serif" font-size="14.00">pocket watch</text>
<polygon fill="none" stroke="black" points="883.93,-49.6 883.93,-72.4 987.14,-72.4 987.14,-49.6 883.93,-49.6"></polygon>
<text text-anchor="start" x="886.93" y="-57.8" font-family="Times,serif" font-style="italic" font-size="14.00">famous%20quote</text>
<polygon fill="none" stroke="black" points="987.14,-49.6 987.14,-72.4 1129.2,-72.4 1129.2,-49.6 987.14,-49.6"></polygon>
<text text-anchor="start" x="1029.23" y="-56.8" font-family="Times,serif" font-size="14.00">"I'm late!"</text>
<polygon fill="none" stroke="black" points="883.93,-26.8 883.93,-49.6 987.14,-49.6 987.14,-26.8 883.93,-26.8"></polygon>
<text text-anchor="start" x="909.49" y="-35" font-family="Times,serif" font-style="italic" font-size="14.00">employer</text>
<polygon fill="none" stroke="black" points="987.14,-26.8 987.14,-49.6 1129.2,-49.6 1129.2,-26.8 987.14,-26.8"></polygon>
<text text-anchor="start" x="990.14" y="-34" font-family="Times,serif" font-size="14.00">Queen%20of%20Hearts</text>
</a>
</g>
</g>
<!-- b3_sk_4&#45;&gt;b3_sk_6 -->
<g id="edge6" class="edge">
<title>b3_sk_4-&gt;b3_sk_6</title>
<g id="a_edge6"><a xlink:title="contains">
<path fill="none" stroke="#ff7f00" d="M778.1,-288.89C805.07,-274.46 838.41,-255.48 866.56,-236 874.05,-230.82 881.62,-225.32 889.17,-219.65"></path>
<polygon fill="#ff7f00" stroke="#ff7f00" points="890.96,-222.68 896.8,-213.84 886.72,-217.12 890.96,-222.68"></polygon>
</a>
</g>
<g id="a_edge6-label"><a xlink:href="http://pkm-united.org/contains" xlink:title="contains">
<text text-anchor="middle" x="860.59" y="-258.2" font-family="Times,serif" font-size="14.00">contains</text>
</a>
</g>
</g>
<!-- b3_sk_7&#45;&gt;b3_sk_3 -->
<g id="edge7" class="edge">
<title>b3_sk_7-&gt;b3_sk_3</title>
<g id="a_edge7"><a xlink:title="contains">
<path fill="none" stroke="#ff7f00" d="M375.16,-288.96C352.68,-274.56 325.12,-255.58 302.56,-236 302.27,-235.75 301.98,-235.49 301.69,-235.24"></path>
<polygon fill="#ff7f00" stroke="#ff7f00" points="304.13,-232.72 294.34,-228.66 299.45,-237.94 304.13,-232.72"></polygon>
</a>
</g>
<g id="a_edge7-label"><a xlink:href="http://pkm-united.org/contains" xlink:title="contains">
<text text-anchor="middle" x="368.25" y="-258.2" font-family="Times,serif" font-size="14.00">contains</text>
</a>
</g>
</g>
<!-- b3_sk_8 -->
<g id="node9" class="node">
<title>b3_sk_8</title>
<g id="a_node9"><a xlink:title="https://eyereasoner.github.io/.well-known/genid/0fea5b55-8352-4e58-b1e8-fcec54055c58#e_b195_1">
<polygon fill="none" stroke="black" points="319.83,-175 319.83,-197.8 429.24,-197.8 429.24,-175 319.83,-175"></polygon>
<text text-anchor="start" x="362.87" y="-183.2" font-family="Times,serif" font-style="italic" font-size="14.00">type</text>
<polygon fill="none" stroke="black" points="429.24,-175 429.24,-197.8 571.3,-197.8 571.3,-175 429.24,-175"></polygon>
<text text-anchor="start" x="468.77" y="-182.2" font-family="Times,serif" font-size="14.00">Annotation</text>
<polygon fill="none" stroke="black" points="319.83,-152.2 319.83,-175 429.24,-175 429.24,-152.2 319.83,-152.2"></polygon>
<text text-anchor="start" x="360.54" y="-160.4" font-family="Times,serif" font-style="italic" font-size="14.00">label</text>
<polygon fill="none" stroke="black" points="429.24,-152.2 429.24,-175 571.3,-175 571.3,-152.2 429.24,-152.2"></polygon>
<text text-anchor="start" x="465.67" y="-159.4" font-family="Times,serif" font-size="14.00">Wonderland</text>
<polygon fill="none" stroke="black" points="319.83,-129.4 319.83,-152.2 429.24,-152.2 429.24,-129.4 319.83,-129.4"></polygon>
<text text-anchor="start" x="362.87" y="-137.6" font-family="Times,serif" font-style="italic" font-size="14.00">type</text>
<polygon fill="none" stroke="black" points="429.24,-129.4 429.24,-152.2 571.3,-152.2 571.3,-129.4 429.24,-129.4"></polygon>
<text text-anchor="start" x="460.43" y="-136.6" font-family="Times,serif" font-size="14.00">fictional place</text>
<polygon fill="none" stroke="black" points="319.83,-106.6 319.83,-129.4 429.24,-129.4 429.24,-106.6 319.83,-106.6"></polygon>
<text text-anchor="start" x="353.93" y="-114.8" font-family="Times,serif" font-style="italic" font-size="14.00">physics</text>
<polygon fill="none" stroke="black" points="429.24,-106.6 429.24,-129.4 571.3,-129.4 571.3,-106.6 429.24,-106.6"></polygon>
<text text-anchor="start" x="459.45" y="-113.8" font-family="Times,serif" font-size="14.00">non-Euclidean</text>
<polygon fill="none" stroke="black" points="319.83,-83.8 319.83,-106.6 429.24,-106.6 429.24,-83.8 319.83,-83.8"></polygon>
<text text-anchor="start" x="343.03" y="-92" font-family="Times,serif" font-style="italic" font-size="14.00">inhabitants</text>
<polygon fill="none" stroke="black" points="429.24,-83.8 429.24,-106.6 571.3,-106.6 571.3,-83.8 429.24,-83.8"></polygon>
<text text-anchor="start" x="457.31" y="-91" font-family="Times,serif" font-size="14.00">talking animals</text>
<polygon fill="none" stroke="black" points="319.83,-61 319.83,-83.8 429.24,-83.8 429.24,-61 319.83,-61"></polygon>
<text text-anchor="start" x="360.53" y="-69.2" font-family="Times,serif" font-style="italic" font-size="14.00">ruler</text>
<polygon fill="none" stroke="black" points="429.24,-61 429.24,-83.8 571.3,-83.8 571.3,-61 429.24,-61"></polygon>
<text text-anchor="start" x="432.24" y="-68.2" font-family="Times,serif" font-size="14.00">Queen%20of%20Hearts</text>
<polygon fill="none" stroke="black" points="319.83,-38.2 319.83,-61 429.24,-61 429.24,-38.2 319.83,-38.2"></polygon>
<text text-anchor="start" x="322.83" y="-46.4" font-family="Times,serif" font-style="italic" font-size="14.00">access%20method</text>
<polygon fill="none" stroke="black" points="429.24,-38.2 429.24,-61 571.3,-61 571.3,-38.2 429.24,-38.2"></polygon>
<text text-anchor="start" x="470.14" y="-45.4" font-family="Times,serif" font-size="14.00">rabbit hole</text>
</a>
</g>
</g>
<!-- b3_sk_7&#45;&gt;b3_sk_8 -->
<g id="edge8" class="edge">
<title>b3_sk_7-&gt;b3_sk_8</title>
<g id="a_edge8"><a xlink:title="contains">
<path fill="none" stroke="#ff7f00" d="M421.22,-289.03C424.04,-269.37 428.11,-240.92 432.12,-212.9"></path>
<polygon fill="#ff7f00" stroke="#ff7f00" points="435.55,-213.68 433.5,-203.29 428.62,-212.69 435.55,-213.68"></polygon>
</a>
</g>
<g id="a_edge8-label"><a xlink:href="http://pkm-united.org/contains" xlink:title="contains">
<text text-anchor="middle" x="449.17" y="-258.2" font-family="Times,serif" font-size="14.00">contains</text>
</a>
</g>
</g>
</g>
</svg>